<svg width="20" height="46" viewBox="0 0 20 46" fill="none" xmlns="http://www.w3.org/2000/svg">
<g clip-path="url(#clip0)">
<path d="M4.66963 -0.000141082H15.3293C15.943 -0.00150435 16.5509 0.118347 17.1181 0.352533C17.6853 0.586719 18.2007 0.930628 18.6347 1.36452C19.0686 1.79841 19.4126 2.31374 19.6469 2.88092C19.8812 3.4481 20.0011 4.05597 19.9999 4.66963V40.7098C20.0011 41.3235 19.8812 41.9314 19.6469 42.4985C19.4126 43.0657 19.0686 43.581 18.6347 44.0149C18.2007 44.4488 17.6853 44.7927 17.1181 45.0269C16.5509 45.2611 15.943 45.381 15.3293 45.3796H4.66963C4.056 45.381 3.44815 45.2611 2.88097 45.0269C2.31379 44.7927 1.79846 44.4488 1.36456 44.0149C0.930662 43.581 0.586741 43.0657 0.352547 42.4985C0.118352 41.9313 -0.0015047 41.3235 -0.000141082 40.7098V4.66963C-0.0015047 4.056 0.118352 3.44815 0.352547 2.88097C0.586741 2.3138 0.930662 1.79846 1.36456 1.36456C1.79846 0.930662 2.31379 0.586742 2.88097 0.352547C3.44815 0.118352 4.056 -0.0015047 4.66963 -0.000141082V-0.000141082Z" fill="white"/>
<path d="M12.6817 8.31856L12.6965 8.47149C13.0186 8.66209 13.1863 8.81502 13.5151 9.02704C14.378 9.57521 15.4359 10.5474 15.3066 13.8882C15.5548 14.6188 15.6649 16.0446 15.8836 16.4975C16.3268 17.3966 16.6364 17.9817 16.7701 18.8224C16.7701 18.8224 16.9016 20.1374 17.0693 20.2327C17.961 20.4374 17.7054 20.5282 17.8295 20.6863C17.9684 20.8614 18.4877 20.854 18.4877 21.3364C18.6636 21.5624 18.8041 21.8137 18.9044 22.0819V4.70745C18.9053 4.23523 18.8131 3.76746 18.633 3.33091C18.4529 2.89436 18.1886 2.49759 17.855 2.16329C17.5215 1.829 17.1253 1.56374 16.6892 1.38269C16.253 1.20164 15.7855 1.10836 15.3132 1.10816H11.8854C12.4335 1.30541 12.7475 1.5396 12.9307 1.90456C13.3688 1.9415 13.8911 2.92849 13.0785 4.39717C13.436 4.64613 13.1583 5.01109 12.9026 5.43145C12.8221 5.56295 12.7416 5.80083 12.5007 5.78975C12.1786 6.45465 11.8063 7.08334 11.5211 7.11954C11.4406 7.22149 11.3822 7.50665 11.5064 7.63668C11.9238 7.82728 12.4276 8.07551 12.6832 8.31709L12.6817 8.31856Z" fill="#C80F2E"/>
<path d="M15.8836 44.2228L15.8474 44.2302C17.4187 43.2698 16.4465 41.4598 16.1466 40.3886L16.2049 40.2061C16.2855 40.0584 16.1178 39.7163 16.1178 39.7163C15.9205 39.5553 15.8762 38.6636 15.7742 38.2543C15.6058 37.5894 16.0698 36.4273 16.0698 36.0321C16.0698 35.6368 15.7742 35.0968 15.2298 34.4068C15.0975 34.2531 14.703 30.8836 14.3521 30.0281C13.8623 28.8512 13.716 29.0411 13.1317 27.6308C12.6884 26.6438 13.0364 25.1891 12.0279 21.8122L12.2547 21.6002C12.2547 21.6002 11.451 18.6687 11.1909 17.8642C10.9309 17.0597 10.4603 17.0095 10.4603 17.0095L10.4891 16.5928C10.526 16.4687 11.4687 14.0196 11.5492 13.9391C11.5559 13.8881 12.9086 12.9595 12.9307 13.0984C13.0401 13.6983 13.5661 16.7465 13.7929 17.2289C14.0197 17.7113 14.802 19.2095 15.1596 20.1374C14.6266 20.2701 14.1366 20.5375 13.7367 20.914C13.3368 21.2905 13.0404 21.7635 12.8759 22.2875C12.7113 22.8116 12.6843 23.3691 12.7973 23.9066C12.9103 24.4441 13.1595 24.9436 13.5211 25.357C13.8827 25.7705 14.3444 26.0841 14.8621 26.2677C15.3797 26.4513 15.9359 26.4989 16.4772 26.4057C17.0185 26.3125 17.5268 26.0818 17.9532 25.7356C18.3797 25.3894 18.71 24.9395 18.9125 24.4289L18.9051 40.6774C18.9111 41.5323 18.6095 42.3609 18.0553 43.0119C17.5012 43.6629 16.7314 44.0929 15.8865 44.2235L15.8836 44.2228Z" fill="#C80F2E"/>
<path d="M10.7594 1.10816C9.58996 1.56103 9.42965 2.06856 9.38532 3.68869C9.18807 3.71011 8.77879 3.52025 8.91768 4.50725C8.91768 4.50725 8.99156 5.16475 9.25382 5.05541C9.04918 6.48789 9.21171 6.84619 8.26017 6.94814C8.05553 6.97031 7.80657 6.98508 7.49998 6.99986L7.40468 7.13136C6.1037 7.25547 5.45875 7.17199 4.61951 8.27867C4.29815 8.70272 3.95462 9.30187 3.53056 10.1574C3.53056 10.1574 3.14271 11.1178 3.02598 11.5093C2.6529 12.2917 1.73978 14.0211 1.46939 15.1352C1.38148 15.5149 1.21304 15.6324 1.45462 16.1806C1.81292 16.9696 1.22043 17.1742 3.25279 17.1158V17.5835C3.25279 17.5835 2.71201 18.0519 2.59454 18.3296C2.47708 18.6074 2.17049 20.0103 2.18526 20.676C2.2222 22.4084 3.63251 23.8527 4.04918 25.5807L4.99259 25.7122C5.50382 26.8913 7.74082 30.068 8.25943 30.5755L8.2816 30.5977C8.39832 30.8976 8.97604 31.27 9.31588 31.643C9.52052 31.8403 10.4639 32.8635 11.7206 33.8357C12.1901 34.2046 12.6837 34.5418 13.1981 34.8449C13.1833 34.8375 13.5054 35.4809 13.6658 36.007C13.023 36.5241 14.2723 37.4764 14.6528 39.0477C14.6749 39.2598 14.2871 39.4718 14.8648 39.9904C14.8278 42.3663 14.1046 43.6104 15.3176 44.2664H4.61951C3.68125 44.2446 2.7886 43.8573 2.13183 43.1868C1.47507 42.5164 1.10615 41.616 1.1037 40.6775V4.70745C1.1025 3.76687 1.46992 2.86326 2.12717 2.19041C2.78442 1.51755 3.67916 1.12903 4.61951 1.10816H10.7594Z" fill="#1D4289"/>
</g>
<defs>
<clipPath id="clip0">
<rect width="20" height="45.3797" fill="white"/>
</clipPath>
</defs>
</svg>
