<svg xmlns="http://www.w3.org/2000/svg" viewBox="0 0 270.72 614.26"><path d="M63.21,0H207.5a63.08,63.08,0,0,1,63.22,63.21V551.05a63.08,63.08,0,0,1-63.22,63.21H63.21A63.07,63.07,0,0,1,0,551.05V63.21A63.07,63.07,0,0,1,63.21,0Z" transform="translate(0 0)" style="fill:#fff"/><path d="M171.66,112.6l.2,2.07c4.36,2.58,6.63,4.65,11.08,7.52,11.68,7.42,26,20.58,24.25,65.8,3.36,9.89,4.85,29.19,7.81,35.32,6,12.17,10.19,20.09,12,31.47,0,0,1.78,17.8,4.05,19.09,12.07,2.77,8.61,4,10.29,6.14,1.88,2.37,8.91,2.27,8.91,8.8a38.22,38.22,0,0,1,5.64,10.09V63.72A48.63,48.63,0,0,0,207.28,15h-46.4c7.42,2.67,11.67,5.84,14.15,10.78,5.93.5,13,13.86,2,33.74,4.84,3.37,1.08,8.31-2.38,14-1.09,1.78-2.18,5-5.44,4.85-4.36,9-9.4,17.51-13.26,18-1.09,1.38-1.88,5.24-.2,7,5.65,2.58,12.47,5.94,15.93,9.21Z" transform="translate(0 0)" style="fill:#c80f2e"/><path d="M215,598.6l-.49.1c21.27-13,8.11-37.5,4.05-52l.79-2.47c1.09-2-1.18-6.63-1.18-6.63-2.67-2.18-3.27-14.25-4.65-19.79-2.28-9,4-24.73,4-30.08s-4-12.66-11.37-22c-1.79-2.08-7.13-47.69-11.88-59.27-6.63-15.93-8.61-13.36-16.52-32.45-6-13.36-1.29-33.05-14.94-78.76l3.07-2.87S155,252.7,151.48,241.81s-9.89-11.57-9.89-11.57l.39-5.64c.5-1.68,13.26-34.83,14.35-35.92.09-.69,18.4-13.26,18.7-11.38,1.48,8.12,8.6,49.38,11.67,55.91s13.66,26.81,18.5,39.37A43.38,43.38,0,1,0,256,330.67l-.1,219.94a48.23,48.23,0,0,1-40.86,48Z" transform="translate(0 0)" style="fill:#c80f2e"/><path d="M145.64,15c-15.83,6.13-18,13-18.6,34.93-2.67.29-8.21-2.28-6.33,11.08,0,0,1,8.9,4.55,7.42-2.77,19.39-.57,24.24-13.45,25.62-2.77.3-6.14.5-10.29.7l-1.29,1.78c-17.61,1.68-26.34.55-37.7,15.53-4.35,5.74-9,13.85-14.74,25.43,0,0-5.25,13-6.83,18.3-5.05,10.59-17.41,34-21.07,49.08-1.19,5.14-3.47,6.73-.2,14.15,4.85,10.68-3.17,13.45,24.34,12.66v6.33s-7.32,6.34-8.91,10.1-5.74,22.75-5.54,31.76c.5,23.45,19.59,43,25.23,66.39l12.77,1.78C74.5,364,104.78,407,111.8,413.87l.3.3c1.58,4.06,9.4,9.1,14,14.15,2.77,2.67,15.54,16.52,32.55,29.68a181.38,181.38,0,0,0,20,13.66c-.2-.1,4.16,8.61,6.33,15.73-8.7,7,8.21,19.89,13.36,41.16.3,2.87-4.95,5.74,2.87,12.76-.5,32.16-10.29,49,6.13,57.88H62.53a48.72,48.72,0,0,1-47.59-48.58V63.72A48.67,48.67,0,0,1,62.53,15Z" transform="translate(0 0)" style="fill:#1d4289"/></svg>